<svg xmlns="http://www.w3.org/2000/svg" width="41.72" height="31.135" viewBox="0 0 41.72 31.135"><path d="M20.978,23.955l7.969,15.311c.142.228.057.455-.171.455H23.824a.558.558,0,0,1-.6-.37C21.4,35.6,19.555,31.838,17.648,27.8h-.057C15.883,31.611,14,35.623,12.183,39.38a.547.547,0,0,1-.512.313h-4.7c-.285,0-.313-.228-.171-.4l7.8-14.856L7.061,9.412a.23.23,0,0,1,.171-.4h4.9a.448.448,0,0,1,.512.313c1.793,3.757,3.614,7.627,5.322,11.412h.057c1.651-3.757,3.472-7.656,5.237-11.384.142-.228.228-.37.512-.37h4.582c.228,0,.313.171.171.4Zm9.363,4.639c0-6.631,4.411-11.811,11.412-11.811a12.621,12.621,0,0,1,1.48.057V9.3a.285.285,0,0,1,.285-.285h4.5c.228,0,.285.085.285.228V35.367a20.271,20.271,0,0,0,.142,2.789c0,.171-.057.228-.228.313a16.953,16.953,0,0,1-7.286,1.651C34.752,40.149,30.341,36.335,30.341,28.594Zm12.892-7.286a4.3,4.3,0,0,0-1.651-.285c-3.586,0-6.09,2.761-6.09,7.343,0,5.237,2.561,7.343,5.777,7.343a5.369,5.369,0,0,0,1.964-.313V21.308Z" transform="translate(-6.721 -8.985)" fill="#fff"/></svg>