<svg xmlns="http://www.w3.org/2000/svg" width="24.866" height="15.589" viewBox="0 0 24.866 15.589"><path d="M10.015,12.286A3.276,3.276,0,0,0,12.1,9.092c0-3.048-2.271-3.79-4.891-3.79H0V20.6H7.417c2.78,0,5.392-1.334,5.392-4.442A3.686,3.686,0,0,0,10.015,12.286ZM3.363,7.913H6.519c1.213,0,2.305.341,2.305,1.748,0,1.3-.85,1.822-2.051,1.822H3.363ZM6.959,18h-3.6V13.789H7.028c1.481,0,2.418.617,2.418,2.184C9.446,17.519,8.327,18,6.959,18ZM22.435,7.611h-6.2V6.1h6.2Zm2.43,7.611c0-3.277-1.917-6.009-5.392-6.009a5.567,5.567,0,0,0-5.668,5.862c0,3.449,2.171,5.815,5.668,5.815a4.939,4.939,0,0,0,5.185-3.726H21.973a2.521,2.521,0,0,1-2.4,1.446,2.505,2.505,0,0,1-2.72-2.819H24.84C24.853,15.61,24.866,15.416,24.866,15.222Zm-8.012-1.347a2.378,2.378,0,0,1,2.525-2.366A2.268,2.268,0,0,1,21.8,13.875Z" transform="translate(0 -5.302)" fill="#fff"/></svg>