<svg xmlns="http://www.w3.org/2000/svg" width="24.095" height="36.142" viewBox="0 0 24.095 36.142"><g transform="translate(-1.28)"><path d="M7.3,17.167a6.024,6.024,0,0,0,6.024-6.024V5.12H7.3a6.024,6.024,0,1,0,0,12.047Z" transform="translate(0 18.975)" fill="#0acf83"/><path d="M1.28,8.584A6.024,6.024,0,0,1,7.3,2.56h6.024V14.607H7.3A6.024,6.024,0,0,1,1.28,8.584Z" transform="translate(0 9.487)" fill="#a259ff"/><path d="M1.28,6.024A6.024,6.024,0,0,1,7.3,0h6.024V12.047H7.3A6.024,6.024,0,0,1,1.28,6.024Z" transform="translate(0)" fill="#f24e1e"/><path d="M3.84,0H9.864a6.024,6.024,0,0,1,0,12.047H3.84Z" transform="translate(9.487)" fill="#ff7262"/><path d="M15.887,8.584A6.024,6.024,0,1,1,9.864,2.56a6.024,6.024,0,0,1,6.024,6.024Z" transform="translate(9.487 9.487)" fill="#1abcfe"/></g></svg>