<svg xmlns="http://www.w3.org/2000/svg" width="25.366" height="24.738" viewBox="0 0 25.366 24.738"><path d="M12.683.445A12.683,12.683,0,0,0,8.672,25.161c.634.119.867-.273.867-.61,0-.3-.011-1.1-.016-2.156-3.528.765-4.272-1.7-4.272-1.7A3.362,3.362,0,0,0,3.84,18.839c-1.149-.786.089-.77.089-.77a2.659,2.659,0,0,1,1.943,1.306,2.7,2.7,0,0,0,3.694,1.055,2.7,2.7,0,0,1,.8-1.7c-2.817-.317-5.777-1.408-5.777-6.267A4.893,4.893,0,0,1,5.9,9.062a4.509,4.509,0,0,1,.111-3.357s1.062-.34,3.488,1.3a11.957,11.957,0,0,1,6.341,0c2.41-1.64,3.472-1.3,3.472-1.3a4.634,4.634,0,0,1,.127,3.357,4.913,4.913,0,0,1,1.3,3.4c0,4.872-2.965,5.945-5.787,6.257a3.036,3.036,0,0,1,.856,2.346c0,1.7-.016,3.061-.016,3.473,0,.333.222.729.872.6A12.667,12.667,0,0,0,12.683.445" transform="translate(0 -0.445)" fill="#fff"/></svg>