<svg xmlns="http://www.w3.org/2000/svg" width="32.46" height="31" viewBox="0 0 32.46 31"><path d="M15.6,30.5l-2.17,8.214c-.047.227-.137.279-.406.279H9.006c-.274,0-.315-.09-.274-.406L16.513,11.34a8.452,8.452,0,0,0,.269-2.282c0-.181.09-.274.227-.274h5.743c.181,0,.274.049.318.274L31.8,38.632c.047.227,0,.362-.227.362H27.048c-.227,0-.362-.055-.406-.236L24.382,30.5H15.6Zm7.639-4.452c-.767-3.03-2.576-9.667-3.255-12.878h-.047c-.586,3.206-2.033,8.631-3.165,12.878Zm12.33-15.229a2.8,2.8,0,0,1,5.606,0,2.625,2.625,0,0,1-2.85,2.8,2.576,2.576,0,0,1-2.767-2.8Zm.307,6.231c0-.219.09-.3.318-.3h4.3c.241,0,.329.09.329.318V38.7c0,.227-.044.318-.315.318H36.266c-.274,0-.364-.137-.364-.356V17.047Z" transform="translate(-8.718 -8.016)" fill="#fff"/></svg>