<svg xmlns="http://www.w3.org/2000/svg" width="45" height="45" viewBox="0 0 45 45"><path d="M43,13H42c-.765.87-.918,1.595-2,2H39c.931,2.233,2,4.581,2,7A19.474,19.474,0,0,1,22,41C11.86,41,4,32.136,4,22A17.759,17.759,0,0,1,22,4a18.951,18.951,0,0,1,8,2h1a7.836,7.836,0,0,1,2-3h0V2A20.675,20.675,0,0,0,23,0,23.384,23.384,0,0,0,0,23C0,35.412,10.591,45,23,45A21.675,21.675,0,0,0,45,23,25.432,25.432,0,0,0,43,13ZM22,12A9.835,9.835,0,0,0,12,22C12.008,27.663,16.34,33,22,33S33,27.663,33,22C32.992,16.341,27.662,12.011,22,12ZM42,8a5.248,5.248,0,0,1-5,5c-2.583,0-4-2.417-4-5s1.417-4,4-4S42,5.419,42,8Z" transform="translate(-0.001 -0.001)" fill="#4e8ef7"/></svg>