<svg xmlns="http://www.w3.org/2000/svg" width="40.88" height="29.006" viewBox="0 0 40.88 29.006"><path d="M30.941,45.77c0,6.034-3.543,8.788-8.7,8.788a9.051,9.051,0,0,1-8.746-5.328l4.747-2.865c.913,1.619,1.744,2.989,3.75,2.989,1.91,0,3.128-.747,3.128-3.667v-19.8h5.826Zm13.784,8.788c-5.411,0-8.912-2.574-10.614-5.951l4.747-2.74C40.1,47.9,41.735,49.409,44.6,49.409c2.408,0,3.958-1.2,3.958-2.878,0-1.993-1.578-2.7-4.249-3.875l-1.453-.623c-4.207-1.785-6.989-4.041-6.989-8.788,0-4.373,3.335-7.694,8.525-7.694,3.709,0,6.366,1.287,8.276,4.664l-4.539,2.906c-1-1.785-2.076-2.491-3.75-2.491A2.529,2.529,0,0,0,41.6,33.121c0,1.744,1.079,2.449,3.584,3.543l1.453.623c4.954,2.117,7.736,4.29,7.736,9.161C54.37,51.679,50.246,54.557,44.724,54.557Z" transform="translate(-13.49 -25.551)"/></svg>