<svg xmlns="http://www.w3.org/2000/svg" width="45" height="45" viewBox="0 0 45 45"><path d="M33.4,42.193c-.167.088-.158.124.009.039a.427.427,0,0,0,.131-.088c0-.03,0-.026-.141.049Zm.334-.176c-.079.062-.079.066.017.017a.27.27,0,0,0,.1-.066C33.849,41.932,33.826,41.942,33.734,42.017Zm.219-.133c-.079.062-.079.066.017.017a.27.27,0,0,0,.1-.066C34.068,41.8,34.045,41.808,33.954,41.883Zm.219-.131c-.079.062-.079.066.017.017a.27.27,0,0,0,.1-.066C34.287,41.668,34.265,41.677,34.173,41.752Zm.3-.2c-.154.1-.2.163-.066.088.1-.056.255-.176.229-.18a.874.874,0,0,0-.163.092ZM21.027.01c-.1.009-.405.039-.683.062A22.549,22.549,0,0,0,4.175,9.4,22.269,22.269,0,0,0,.2,19.228,17.252,17.252,0,0,0,0,22.506a17.264,17.264,0,0,0,.2,3.278A22.593,22.593,0,0,0,15.595,43.963a23.774,23.774,0,0,0,4.75.984,41.321,41.321,0,0,0,4.311,0,22.714,22.714,0,0,0,8.106-2.37c.386-.2.461-.251.409-.294q-1.849-2.443-3.664-4.913l-3.6-4.86L21.4,25.838Q19.152,22.49,16.86,19.17c-.017,0-.036,2.961-.043,6.58-.013,6.338-.017,6.593-.1,6.743a.8.8,0,0,1-.386.4c-.141.071-.264.084-.928.084h-.761l-.2-.128a.829.829,0,0,1-.294-.321l-.092-.2.009-8.819.013-8.822.137-.171a1.194,1.194,0,0,1,.326-.268c.18-.088.251-.1,1.013-.1.9,0,1.046.036,1.281.291q2.737,4.074,5.428,8.177c2.921,4.429,6.913,10.476,8.877,13.446l3.563,5.4.18-.118A23.139,23.139,0,0,0,39.5,37.289a22.389,22.389,0,0,0,5.3-11.5A17.253,17.253,0,0,0,45,22.51a17.264,17.264,0,0,0-.2-3.278A22.593,22.593,0,0,0,29.408,1.053,23.536,23.536,0,0,0,24.724.072C24.3.029,21.394-.02,21.031.016Zm9.21,13.61a.883.883,0,0,1,.444.519c.036.114.043,2.56.036,8.07L30.7,30.119l-1.4-2.138-1.4-2.138V20.095c0-3.716.017-5.805.043-5.907a.908.908,0,0,1,.435-.555c.18-.092.246-.1.938-.1C29.977,13.532,30.091,13.541,30.237,13.62Z" transform="translate(-0.001 -0.004)"/></svg>