<svg xmlns="http://www.w3.org/2000/svg" width="35.058" height="31.067" viewBox="0 0 35.058 31.067"><path d="M8.7,8.882c0-.186.389-.322.622-.322,1.788-.092,4.41-.139,7.159-.139,7.7,0,10.691,4.221,10.691,9.625,0,7.053-5.115,10.08-11.391,10.08-1.055,0-1.416-.047-2.152-.047V38.747c0,.23-.092.322-.319.322H9.022c-.23,0-.319-.083-.319-.314V8.882Zm4.929,14.751c.639.044,1.144.044,2.249.044,3.249,0,6.3-1.144,6.3-5.543,0-3.527-2.183-5.315-5.892-5.315-1.1,0-2.152.044-2.657.092v10.73Zm23.9-3.3c-2.2,0-2.932,1.1-2.932,2.016,0,1.008.5,1.694,3.435,3.207,4.354,2.11,5.726,4.124,5.726,7.1,0,4.443-3.388,6.831-7.97,6.831A12.132,12.132,0,0,1,30.1,38.294c-.18-.092-.222-.228-.222-.458V33.763c0-.278.133-.369.317-.233a10.23,10.23,0,0,0,5.587,1.649c2.2,0,3.116-.916,3.116-2.155,0-1.008-.639-1.88-3.435-3.346-3.943-1.888-5.593-3.8-5.593-7.017,0-3.574,2.794-6.553,7.65-6.553a12.943,12.943,0,0,1,4.982.778.605.605,0,0,1,.278.55v3.8c0,.23-.139.369-.417.278a9.944,9.944,0,0,0-4.84-1.194Z" transform="translate(-8.7 -8.421)" fill="#fff"/></svg>