<svg xmlns="http://www.w3.org/2000/svg" width="70.038" height="61.286" viewBox="0 0 70.038 61.286"><path d="M57.207,22.111q-1.108-.369-2.216-.7c.123-.506.233-1.012.342-1.518,1.683-8.153.575-14.705-3.16-16.866-3.6-2.066-9.466.082-15.4,5.253-.588.506-1.163,1.04-1.71,1.573-.369-.356-.752-.711-1.135-1.053C27.7,3.275,21.463.95,17.728,3.125c-3.584,2.079-4.651,8.249-3.146,15.964.15.766.315,1.518.506,2.284-.875.246-1.737.52-2.544.807C5.239,24.71,0,28.7,0,32.836c0,4.268,5.581,8.55,13.173,11.149.616.205,1.231.41,1.86.588-.205.821-.383,1.628-.547,2.462-1.436,7.592-.315,13.611,3.269,15.676,3.693,2.134,9.9-.055,15.95-5.349.479-.424.958-.862,1.436-1.327.6.588,1.231,1.149,1.86,1.7,5.855,5.034,11.641,7.072,15.211,5.007,3.693-2.134,4.9-8.6,3.338-16.483q-.185-.9-.41-1.847c.438-.123.862-.26,1.286-.4,7.893-2.613,13.611-6.84,13.611-11.176C70.038,28.691,64.648,24.669,57.207,22.111ZM38.7,10.5c5.089-4.432,9.835-6.169,12-4.925,2.312,1.327,3.2,6.689,1.751,13.734-.1.465-.192.917-.315,1.368a70.028,70.028,0,0,0-9.206-1.45A69.113,69.113,0,0,0,37.1,11.961c.533-.506,1.053-.985,1.6-1.464ZM22.872,39.935c.7,1.19,1.409,2.38,2.161,3.543a61.941,61.941,0,0,1-6.347-1.026,63.9,63.9,0,0,1,2.23-6.087c.629,1.2,1.272,2.394,1.956,3.57ZM18.727,23.479c1.97-.438,4.063-.793,6.238-1.067-.725,1.135-1.436,2.3-2.107,3.475s-1.327,2.353-1.942,3.557C20.054,27.405,19.329,25.408,18.727,23.479ZM22.475,32.9c.9-1.888,1.888-3.734,2.927-5.554s2.161-3.584,3.338-5.321c2.052-.15,4.145-.233,6.279-.233s4.241.082,6.279.233q1.744,2.585,3.324,5.294T47.59,32.85q-1.375,2.832-2.955,5.581c-1.04,1.819-2.148,3.584-3.31,5.335-2.038.15-4.158.219-6.306.219s-4.227-.068-6.238-.192Q27,41.187,25.416,38.458C24.363,36.639,23.391,34.792,22.475,32.9Zm24.7,7c.7-1.2,1.354-2.421,2-3.652a63.5,63.5,0,0,1,2.312,6.06,60.084,60.084,0,0,1-6.429,1.094C45.8,42.261,46.5,41.085,47.18,39.908Zm1.97-10.465c-.643-1.2-1.3-2.408-1.983-3.584s-1.368-2.312-2.093-3.447a62.949,62.949,0,0,1,6.279,1.094A60.539,60.539,0,0,1,49.149,29.443Zm-14.1-15.389a60.068,60.068,0,0,1,4.049,4.9c-2.708-.123-5.431-.123-8.139,0C32.3,17.187,33.678,15.545,35.046,14.054ZM19.178,5.669c2.3-1.341,7.4.575,12.776,5.335.342.3.684.629,1.04.958a69.5,69.5,0,0,0-5.868,7.264,72.107,72.107,0,0,0-9.192,1.423c-.178-.7-.328-1.409-.479-2.12-1.286-6.621-.438-11.614,1.724-12.858ZM15.827,41.727c-.575-.164-1.135-.342-1.7-.533a27.9,27.9,0,0,1-8.618-4.268,6.138,6.138,0,0,1-2.572-4.09c0-2.5,4.323-5.7,10.56-7.879.78-.274,1.573-.52,2.367-.752a72.738,72.738,0,0,0,3.351,8.7,74.774,74.774,0,0,0-3.392,8.823Zm15.95,13.406a25.037,25.037,0,0,1-7.715,4.829,6.055,6.055,0,0,1-4.829.178c-2.175-1.258-3.078-6.087-1.847-12.585.15-.766.315-1.532.506-2.284a68.434,68.434,0,0,0,9.288,1.341,72.189,72.189,0,0,0,5.909,7.3C32.652,54.34,32.215,54.75,31.777,55.133Zm3.351-3.324c-1.4-1.5-2.791-3.174-4.145-4.966,1.313.055,2.667.082,4.035.082,1.409,0,2.791-.027,4.158-.1a58.992,58.992,0,0,1-4.049,4.979Zm17.879,4.1a6.079,6.079,0,0,1-2.257,4.282c-2.175,1.258-6.812-.383-11.819-4.678-.575-.492-1.149-1.026-1.737-1.573a67.669,67.669,0,0,0,5.773-7.332A67.434,67.434,0,0,0,52.3,45.175c.137.561.26,1.122.369,1.669A24.936,24.936,0,0,1,53.007,55.913ZM55.5,41.208c-.383.123-.766.246-1.163.356a69.49,69.49,0,0,0-3.488-8.727,69.143,69.143,0,0,0,3.351-8.6c.711.205,1.4.424,2.052.643C62.624,27.063,67.1,30.319,67.1,32.809c0,2.681-4.774,6.142-11.6,8.4ZM35.019,39.156a6.265,6.265,0,1,0-6.265-6.265A6.264,6.264,0,0,0,35.019,39.156Z" transform="translate(0 -2.251)" fill="#fff"/></svg>