<svg xmlns="http://www.w3.org/2000/svg" width="61.864" height="54.134" viewBox="0 0 61.864 54.134"><path d="M50.53,19.794q-.979-.326-1.957-.616c.109-.447.205-.894.3-1.341,1.486-7.2.507-12.989-2.791-14.9-3.178-1.824-8.361.072-13.605,4.64-.52.447-1.027.918-1.51,1.39-.326-.314-.665-.628-1-.93C24.468,3.156,18.958,1.1,15.659,3.023c-3.166,1.837-4.108,7.286-2.779,14.1.133.677.278,1.341.447,2.018-.773.217-1.535.459-2.247.713C4.628,22.089,0,25.617,0,29.266c0,3.77,4.93,7.552,11.636,9.847.544.181,1.087.362,1.643.52-.181.725-.338,1.438-.483,2.175-1.269,6.706-.278,12.022,2.888,13.847,3.262,1.885,8.748-.048,14.088-4.724.423-.375.846-.761,1.269-1.172.532.52,1.087,1.015,1.643,1.5C37.855,55.7,42.966,57.5,46.12,55.679c3.262-1.885,4.326-7.6,2.948-14.56q-.163-.8-.362-1.631c.387-.109.761-.23,1.136-.35,6.972-2.308,12.022-6.041,12.022-9.872C61.864,25.605,57.1,22.053,50.53,19.794ZM34.182,9.535c4.495-3.915,8.688-5.449,10.6-4.35,2.042,1.172,2.827,5.908,1.547,12.131-.085.411-.169.81-.278,1.208a61.855,61.855,0,0,0-8.132-1.281,61.048,61.048,0,0,0-5.147-6.416c.471-.447.93-.87,1.414-1.293Zm-13.98,26c.616,1.051,1.245,2.1,1.909,3.129a54.712,54.712,0,0,1-5.606-.906,56.443,56.443,0,0,1,1.969-5.377C19.03,33.447,19.6,34.5,20.2,35.537ZM16.541,21c1.74-.387,3.589-.7,5.51-.942-.64,1-1.269,2.03-1.861,3.069s-1.172,2.078-1.716,3.142C17.713,24.47,17.073,22.705,16.541,21Zm3.311,8.325c.8-1.667,1.667-3.3,2.586-4.906s1.909-3.166,2.948-4.7c1.812-.133,3.661-.205,5.546-.205s3.746.072,5.546.205Q38.018,22,39.414,24.4t2.622,4.881q-1.214,2.5-2.61,4.93c-.918,1.607-1.9,3.166-2.924,4.712-1.8.133-3.673.193-5.57.193s-3.734-.06-5.51-.169q-1.577-2.3-2.972-4.712C21.519,32.625,20.662,30.994,19.852,29.327Zm21.821,6.186c.616-1.063,1.2-2.139,1.764-3.226a56.089,56.089,0,0,1,2.042,5.353,53.072,53.072,0,0,1-5.679.967C40.453,37.591,41.069,36.552,41.673,35.513Zm1.74-9.243c-.568-1.063-1.148-2.127-1.752-3.166s-1.208-2.042-1.849-3.045a55.6,55.6,0,0,1,5.546.967A53.474,53.474,0,0,1,43.413,26.27ZM30.956,12.677A53.058,53.058,0,0,1,34.533,17c-2.392-.109-4.8-.109-7.189,0C28.527,15.444,29.748,13.994,30.956,12.677ZM16.94,5.27c2.03-1.184,6.537.507,11.285,4.712.3.266.6.556.918.846a61.386,61.386,0,0,0-5.184,6.416A63.692,63.692,0,0,0,15.84,18.5c-.157-.616-.29-1.245-.423-1.873C14.282,10.78,15.031,6.37,16.94,5.27ZM13.98,37.12c-.507-.145-1-.3-1.5-.471a24.643,24.643,0,0,1-7.612-3.77A5.422,5.422,0,0,1,2.6,29.266c0-2.211,3.818-5.039,9.328-6.96.689-.242,1.39-.459,2.09-.665a64.249,64.249,0,0,0,2.96,7.685,66.047,66.047,0,0,0-3,7.793ZM28.068,48.961a22.115,22.115,0,0,1-6.815,4.265,5.348,5.348,0,0,1-4.265.157c-1.921-1.112-2.719-5.377-1.631-11.116.133-.677.278-1.353.447-2.018a60.448,60.448,0,0,0,8.2,1.184,63.764,63.764,0,0,0,5.22,6.452C28.842,48.26,28.455,48.623,28.068,48.961Zm2.96-2.936c-1.232-1.329-2.465-2.8-3.661-4.386,1.16.048,2.356.072,3.564.072,1.245,0,2.465-.024,3.673-.085a52.106,52.106,0,0,1-3.576,4.4ZM46.821,49.65a5.37,5.37,0,0,1-1.994,3.782c-1.921,1.112-6.017-.338-10.439-4.132-.507-.435-1.015-.906-1.535-1.39a59.772,59.772,0,0,0,5.1-6.476,59.564,59.564,0,0,0,8.24-1.269c.121.5.23.991.326,1.474A22.026,22.026,0,0,1,46.821,49.65Zm2.2-12.989c-.338.109-.677.217-1.027.314a61.38,61.38,0,0,0-3.081-7.709,61.074,61.074,0,0,0,2.96-7.6c.628.181,1.232.375,1.812.568,5.631,1.933,9.582,4.809,9.582,7.008,0,2.368-4.217,5.425-10.246,7.419ZM30.932,34.849A5.534,5.534,0,1,0,25.4,29.315,5.533,5.533,0,0,0,30.932,34.849Z" transform="translate(0 -2.251)" fill="#0093ff"/></svg>