<svg xmlns="http://www.w3.org/2000/svg" width="53.688" height="40.27" viewBox="0 0 53.688 40.27"><path d="M25.321,31.57C25.3,31.62,25.271,31.661,25.321,31.57Zm20.9-7.3A11,11,0,0,0,41.355,25.4a10.332,10.332,0,0,1-1.091-2.525,6.74,6.74,0,0,1-.092-2.122,17.872,17.872,0,0,1,.638-2.282c-.008-.092-.117-.554-1.2-.562s-2.013.21-2.122.495a10.3,10.3,0,0,0-.445,1.6,38.871,38.871,0,0,1-3.279,6.317,6.513,6.513,0,0,1-.747-1.846,6.74,6.74,0,0,1-.092-2.122,17.873,17.873,0,0,1,.638-2.282c-.008-.092-.117-.554-1.2-.562s-2.013.21-2.122.495-.227.956-.445,1.6-2.843,6.485-3.53,8c-.352.772-.654,1.393-.872,1.812-.034.067-.059.109-.076.143.025-.042.042-.084.042-.067-.185.361-.294.562-.294.562v.008c-.143.268-.3.512-.378.512a3.48,3.48,0,0,1,.025-1.669c.394-2.03,1.325-5.184,1.317-5.293-.008-.059.176-.6-.612-.9a.987.987,0,0,0-1.107.185c-.067,0-.117.168-.117.168s.847-3.557-1.627-3.557c-1.544,0-3.691,1.695-4.746,3.23-.663.361-2.1,1.141-3.607,1.971l-1.737.956c-.042-.042-.076-.084-.117-.126-3-3.2-8.546-5.47-8.311-9.773.084-1.569.629-5.688,10.66-10.687C22.931,3,29.5,4.121,30.635,6.621c1.627,3.565-3.514,10.2-12.052,11.157-3.254.361-4.965-.9-5.392-1.367-.445-.495-.512-.52-.68-.428-.277.151-.1.587,0,.847A5.055,5.055,0,0,0,15.6,19.255c1.569.512,5.384.8,10-.99,5.183-2,9.217-7.558,8.034-12.214C32.425,1.32,24.58-.232,17.161,2.4A37.315,37.315,0,0,0,4.522,9.65C.438,13.475-.216,16.806.053,18.2c.955,4.941,7.766,8.162,10.491,10.545-.134.076-.26.143-.378.21-1.367.68-6.558,3.4-7.858,6.267-1.468,3.255.243,5.587,1.367,5.906A8.375,8.375,0,0,0,12.7,37.467,9.083,9.083,0,0,0,13.5,29.12c-.008-.025-.025-.042-.034-.067.352-.21.713-.419,1.074-.629.7-.411,1.375-.789,1.971-1.116a13.03,13.03,0,0,0-.7,3.574,7.426,7.426,0,0,0,1.6,5.176,1.761,1.761,0,0,0,1.291.419c1.158,0,1.678-.956,2.256-2.1.713-1.393,1.342-3.012,1.342-3.012s-.789,4.379,1.367,4.379c.788,0,1.576-1.015,1.929-1.535v.008s.017-.034.059-.1c.084-.126.126-.2.126-.2v-.025c.319-.545,1.015-1.8,2.063-3.859,1.359-2.668,2.658-6,2.658-6a16.882,16.882,0,0,0,.52,2.164,20.264,20.264,0,0,0,1.124,2.517c-.319.436-.512.688-.512.688a.026.026,0,0,0,.008.017c-.252.336-.537.7-.831,1.049A29.61,29.61,0,0,0,28.3,33.625a.857.857,0,0,0,.235,1.149,2.039,2.039,0,0,0,1.316.21,5.817,5.817,0,0,0,1.971-.453,6.9,6.9,0,0,0,1.694-.889A3.787,3.787,0,0,0,35.142,30.3a6.948,6.948,0,0,0-.612-2.366c.092-.134.193-.277.285-.419a44.6,44.6,0,0,0,2.944-5.085,16.882,16.882,0,0,0,.52,2.164,14.8,14.8,0,0,0,.956,2.156,9.221,9.221,0,0,0-2.86,3.7c-.621,1.787-.134,2.592.78,2.777a2.815,2.815,0,0,0,1.435-.294A6.666,6.666,0,0,0,40.4,32a4.054,4.054,0,0,0,2-3.322,6.241,6.241,0,0,0-.453-1.963,10.24,10.24,0,0,1,5.209-.6c4.671.545,5.585,3.465,5.409,4.681a3.1,3.1,0,0,1-1.485,2.1c-.327.2-.428.277-.4.428.042.218.193.21.47.159a3.644,3.644,0,0,0,2.541-3.247c.134-2.852-2.608-5.99-7.466-5.965Zm-36,12.139C8.674,38.1,6.51,38.734,5.579,38.2c-1-.581-.6-3.062,1.3-4.859a24.856,24.856,0,0,1,3.64-2.718c.227-.134.554-.336.956-.579.067-.042.1-.059.1-.059.076-.05.159-.092.243-.143a6.7,6.7,0,0,1-1.6,6.569Zm11.271-7.667c-.537,1.317-1.669,4.673-2.356,4.5-.587-.151-.948-2.71-.117-5.226a11.57,11.57,0,0,1,1.837-3.364c.846-.948,1.778-1.25,2-.872C23.141,24.272,21.824,27.921,21.488,28.743ZM30.8,33.189c-.227.117-.436.193-.537.134-.076-.042.092-.2.092-.2s1.166-1.25,1.627-1.82c.268-.336.579-.73.914-1.166,0,.042.008.084.008.134-.011,1.5-1.453,2.517-2.107,2.919Zm7.179-1.636c-.168-.117-.143-.512.419-1.737a6.52,6.52,0,0,1,1.594-2.055,3.035,3.035,0,0,1,.159.906,2.958,2.958,0,0,1-2.172,2.886Z" transform="translate(0 -1.125)" fill="#fff"/></svg>