<svg xmlns="http://www.w3.org/2000/svg" width="43.508" height="28.656" viewBox="0 0 43.508 28.656"><path d="M44.285,16.673a7.712,7.712,0,0,1,3.879,2.236A10.027,10.027,0,0,1,49.65,20.9c.021.078-2.678,1.887-4.311,2.9-.059.039-.3-.217-.561-.61a3.518,3.518,0,0,0-2.915-1.752c-1.882-.129-3.091.855-3.081,2.5a2.274,2.274,0,0,0,.264,1.163c.414.855,1.184,1.37,3.592,2.411,4.443,1.913,6.342,3.171,7.523,4.962a9,9,0,0,1,.718,7.562c-.982,2.579-3.424,4.332-6.862,4.911a18.927,18.927,0,0,1-4.724-.047,11.406,11.406,0,0,1-6.311-3.29,10.925,10.925,0,0,1-1.615-2.391,4.085,4.085,0,0,1,.569-.364c.279-.158,1.321-.76,2.305-1.331l1.783-1.034.375.553A8.333,8.333,0,0,0,38.751,39.3c1.98,1.044,4.7.9,6.035-.3a2.691,2.691,0,0,0,.344-3.437c-.481-.687-1.465-1.266-4.262-2.481-3.2-1.378-4.577-2.233-5.838-3.592a8.18,8.18,0,0,1-1.7-3.1,12.475,12.475,0,0,1-.109-3.957,7.557,7.557,0,0,1,6.36-5.888,15.7,15.7,0,0,1,4.706.137Zm-14.561,2.59.021,2.541H21.668v22.94H15.956V21.8H7.887V19.312a24.789,24.789,0,0,1,.067-2.559c.031-.041,4.944-.062,10.9-.052l10.842.031Z" transform="translate(-7.887 -16.418)" fill="#fff"/></svg>