<svg xmlns="http://www.w3.org/2000/svg" width="85.772" height="53.949" viewBox="0 0 85.772 53.949"><g transform="translate(-448.624 -436.551)"><path d="M524.514,515.949a2.839,2.839,0,0,1-2.459-1.42l-22.376-38.757v20.1a2.839,2.839,0,1,1-5.679,0v-30.7a2.839,2.839,0,0,1,5.3-1.42l25.216,43.675,25.41-44.011a2.839,2.839,0,0,1,5.3,1.429l-.1,30.884a2.839,2.839,0,1,1-5.679-.018l.065-20.218-22.536,39.033A2.839,2.839,0,0,1,524.514,515.949Z" transform="translate(-33.004 -25.449)" fill="#fff"/><path d="M545.687,494.7a2.84,2.84,0,0,1-2.585-1.662l-9.772-21.425-10,21.422a2.839,2.839,0,0,1-5.146-2.4l12.6-27a2.839,2.839,0,0,1,5.156.023l12.325,27.024a2.841,2.841,0,0,1-2.582,4.018Z" transform="translate(-41.528 -25.449)" fill="#fff"/><path d="M477.62,518.33a2.84,2.84,0,0,1-1.279-5.376c28.012-14.1,55.833-14.092,82.69.023A2.839,2.839,0,0,1,556.389,518c-25.141-13.212-51.214-13.2-77.495.023A2.828,2.828,0,0,1,477.62,518.33Z" transform="translate(-26.153 -39.832)" fill="#fff"/></g></svg>