<svg xmlns="http://www.w3.org/2000/svg" width="101.858" height="115.206" viewBox="0 0 101.858 115.206"><path d="M205.244,468.211h0a2.95,2.95,0,0,1-2.555-1.475l-7.09-12.279H159.352a2.95,2.95,0,0,1-1.326-5.585,126.315,126.315,0,0,1,12.553-5.5V410.329a2.95,2.95,0,0,1,5.505-1.475L190.893,434.5,202.94,408.7a2.95,2.95,0,0,1,5.358.024l11.556,25.337,14.773-25.588a2.95,2.95,0,0,1,5.505,1.485l-.107,33.284a115.279,115.279,0,0,1,12.484,5.657,2.95,2.95,0,0,1-1.372,5.562H214.889l-7.09,12.28A2.95,2.95,0,0,1,205.244,468.211Zm-31.672-19.655H197.3a2.95,2.95,0,0,1,2.555,1.475l5.386,9.329,5.387-9.33a2.95,2.95,0,0,1,2.555-1.475h24.221q-.669-.251-1.336-.491a2.95,2.95,0,0,1-1.953-2.786l.078-24.263-12.1,20.95a2.95,2.95,0,0,1-5.239-.251l-11.279-24.73-11.609,24.869a2.929,2.929,0,0,1-2.261,1.935,2.983,2.983,0,0,1-3.094-1.426L176.48,421.34v24.1a2.95,2.95,0,0,1-1.968,2.782Q174.042,448.385,173.572,448.556Z" transform="translate(327.282 -338.945) rotate(60)" opacity="0.11"/></svg>