<svg xmlns="http://www.w3.org/2000/svg" width="63.37" height="38.776" viewBox="0 0 63.37 38.776"><g transform="translate(-274.397 -383.239)"><path d="M550.09,420.016h20.9a6.272,6.272,0,0,0,5.432-9.409L563.59,388.376a6.272,6.272,0,0,0-10.864,0L549.477,394a6.272,6.272,0,0,0,0,6.272l5.965,10.332a6.273,6.273,0,0,1-5.432,9.409Z" transform="translate(-241.584 0)" fill="none" stroke="#fff" stroke-linecap="round" stroke-linejoin="round" stroke-width="4"/><path d="M290.159,388.375l-12.835,22.232a6.272,6.272,0,0,0,5.432,9.409h6.5a6.273,6.273,0,0,0,5.432-3.136l9.587-16.6a6.272,6.272,0,0,0,0-6.272l-3.249-5.627A6.272,6.272,0,0,0,290.159,388.375Z" transform="translate(0 0)" fill="none" stroke="#fff" stroke-linecap="round" stroke-linejoin="round" stroke-width="4"/></g></svg>