<svg xmlns="http://www.w3.org/2000/svg" width="95.103" height="95.103" viewBox="0 0 95.103 95.103"><g transform="translate(-236.68 -553.32) rotate(45)"><path d="M612.608,248.585H645.02a14.034,14.034,0,0,0,12.154-21.052l-12.3-21.3a14.034,14.034,0,0,0-24.309,0h0a14.034,14.034,0,0,0,0,14.035l4.2,7.269A14.034,14.034,0,0,1,612.608,248.585Z" transform="translate(9.348)" fill="#fff"/><path d="M597.5,206.229l-12.3,21.3a14.035,14.035,0,0,0,12.154,21.052h0a14.034,14.034,0,0,0,12.154-7.017l12.3-21.3a14.034,14.034,0,0,0,0-14.035h0A14.034,14.034,0,0,0,597.5,206.229Z" transform="translate(0)" fill="#fff"/></g></svg>